<?xml version="1.0" encoding="UTF-8" standalone="no"?>
<!-- Generator: Adobe Illustrator 13.0.2, SVG Export Plug-In . SVG Version: 6.00 Build 14948)  -->

<svg
   id="Layer_1"
   xml:space="preserve"
   viewBox="0 0 83.326593 108.7695"
   version="1.1"
   y="0px"
   x="0px"
   width="83.326591"
   height="108.7695"
   xmlns:xlink="http://www.w3.org/1999/xlink"
   xmlns="http://www.w3.org/2000/svg"
   xmlns:svg="http://www.w3.org/2000/svg"
   xmlns:rdf="http://www.w3.org/1999/02/22-rdf-syntax-ns#"
   xmlns:cc="http://creativecommons.org/ns#"
   xmlns:dc="http://purl.org/dc/elements/1.1/"><defs
   id="defs1"><linearGradient
     id="linearGradient141"><stop
       style="stop-color:#64ceb7;stop-opacity:1;"
       offset="0"
       id="stop139" /><stop
       style="stop-color:#5ec3bf;stop-opacity:1;"
       offset="0.49771217"
       id="stop140" /><stop
       style="stop-color:#59b9c6;stop-opacity:1"
       offset="1"
       id="stop141" /></linearGradient><linearGradient
     id="linearGradient25"><stop
       style="stop-color:#6adaaf;stop-opacity:1;"
       offset="0"
       id="stop25" /><stop
       style="stop-color:#53adce;stop-opacity:1;"
       offset="0.74842769"
       id="stop27" /><stop
       style="stop-color:#3cb7cc;stop-opacity:1;"
       offset="1"
       id="stop26" /></linearGradient><linearGradient
     xlink:href="#linearGradient141"
     id="linearGradient136"
     gradientUnits="userSpaceOnUse"
     gradientTransform="matrix(0.90383986,0,0,0.90383986,-348.99183,-2.70485)"
     x1="441.05573"
     y1="4.8886938"
     x2="476.45099"
     y2="40.25209" /><linearGradient
     xlink:href="#linearGradient25"
     id="linearGradient137"
     gradientUnits="userSpaceOnUse"
     gradientTransform="matrix(0.91706143,0,0,0.91706143,-141.78393,0.43774)"
     x1="394.69901"
     y1="2.7508903"
     x2="476.31186"
     y2="114.87547" /></defs>


<metadata
   id="metadata1"><rdf:RDF><cc:Work><dc:format>image/svg+xml</dc:format><dc:type
         rdf:resource="http://purl.org/dc/dcmitype/StillImage" /><cc:license
         rdf:resource="http://creativecommons.org/publicdomain/zero/1.0/" /><dc:publisher><cc:Agent
           rdf:about="http://openclipart.org/"><dc:title>Openclipart</dc:title></cc:Agent></dc:publisher><dc:title>Signs Hazard Warning</dc:title><dc:date>2006-09-11T08:59:16</dc:date><dc:description /><dc:source>https://openclipart.org/detail/14422/signs-hazard-warning-by-h0us3s-14422</dc:source><dc:creator><cc:Agent><dc:title>h0us3s</dc:title></cc:Agent></dc:creator><dc:subject><rdf:Bag><rdf:li>hazard</rdf:li><rdf:li>sign</rdf:li><rdf:li>warning</rdf:li></rdf:Bag></dc:subject></cc:Work><cc:License
       rdf:about="http://creativecommons.org/publicdomain/zero/1.0/"><cc:permits
         rdf:resource="http://creativecommons.org/ns#Reproduction" /><cc:permits
         rdf:resource="http://creativecommons.org/ns#Distribution" /><cc:permits
         rdf:resource="http://creativecommons.org/ns#DerivativeWorks" /></cc:License></rdf:RDF></metadata><path
   d="M 297.94603,30.561132 268.68733,1.3024333 A 4.4467846,4.4467846 22.500002 0 0 265.54298,0 h -37.35705 c -6.79338,0 -12.26406,5.4707 -12.26406,12.2641 v 84.24127 c 0,6.79343 5.47068,12.26413 12.26406,12.26413 h 58.80733 c 6.79338,0 12.2552,-5.4707 12.2552,-12.26413 V 33.705484 a 4.4467856,4.4467856 67.500002 0 0 -1.30243,-3.144352 z"
   style="fill:url(#linearGradient137);fill-rule:nonzero;stroke:none;stroke-width:6.72573;stroke-linecap:round;stroke-linejoin:round;stroke-miterlimit:10;stroke-dasharray:none;stroke-opacity:1;paint-order:fill markers stroke"
   id="path81"
   transform="translate(-215.92187)" /><path
   id="path110"
   style="fill:#ffffff;fill-opacity:1;stroke-width:0.44282"
   d="M 21.1836,2.5 20.47266,61.626953 31.18946,2.5 Z M 48.96129,3.0606652 26.13477,63.464844 51.74024,18.402344 49.65625,2.5 Z M 3.00001,9.21875 C 2.89319,9.78551 2.8379,10.372429 2.8379,10.974609 V 38.023438 L 13.13868,61.964844 C 13.13868,61.413499 5.9159,24.21485 3.00001,9.21875 Z M 56.47266,29.167969 33.08204,60.28125 61.08594,31.048828 56.48243,29.169922 Z m 12.33399,2.912109 -37.01954,35.980469 48.80155,-33.872164 0.23752,-1.289945 -0.12696,-0.126954 -11.875,-0.691406 z M 80.82618,43.650391 35.31251,70.605469 80.82618,49.978516 Z M 2.8379,48.708984 v 11.710938 l 5.49218,5.833984 z M 80.82618,63.410156 34.7168,74.589844 80.82618,68.759766 Z m 0,12.13086 -38.14258,1.59375 38.14258,1.294922 z m -45.69922,4.419922 -0.0293,0.002 45.72852,7.582031 V 81.9375 Z m -1.50781,4.982421 45.49023,17.146481 c 0.99744,-1.44857 1.61292,-3.18944 1.70508,-5.083981 -11.6375,-2.184724 -47.19531,-12.0625 -47.19531,-12.0625 z m -4.15235,3.966797 23.07031,17.304684 h 19.53516 c 0.017,0 0.0338,9e-5 0.0508,0 0.54368,-0.0564 1.07432,-0.15515 1.58594,-0.29492 z" /><path
   id="path112"
   style="fill:#ffffff;fill-opacity:1;stroke:url(#linearGradient136);stroke-width:5;stroke-linecap:round;stroke-linejoin:round;stroke-miterlimit:3;stroke-dasharray:none;stroke-opacity:1;paint-order:markers stroke fill"
   d="M 51.31641,3.3886719 V 20.533203 c 0,6.35775 5.11103,11.476563 11.46875,11.476563 h 17.15235 z" /><path
   style="fill:#ffffff;stroke:none;stroke-width:7.19;stroke-linecap:round;stroke-linejoin:round;stroke-miterlimit:10;stroke-opacity:0.918397;paint-order:fill markers stroke"
   id="path113"
   d="m 378.07944,52.534039 -1.07143,-0.245033 -1.09035,-0.138263 -0.0981,-1.094706 -0.20544,-1.079717 1.01082,-0.431533 0.96339,-0.529038 0.72278,0.828004 0.80084,0.752754 -0.56413,0.943267 z"
   transform="matrix(1.2571517,0,0,1.2571517,-458.6898,-20.350601)" /><path
   style="fill:#ffffff;stroke:none;stroke-width:7.19;stroke-linecap:round;stroke-linejoin:round;stroke-miterlimit:10;stroke-opacity:0.918397;paint-order:fill markers stroke"
   id="path114"
   d="m 368.90407,24.438345 -0.88134,0.334809 -0.84663,0.414816 -0.59078,-0.734744 -0.65613,-0.677012 0.51622,-0.788907 0.44112,-0.833232 0.90982,0.247173 0.92876,0.162046 0.0461,0.941668 z"
   transform="matrix(1.1979741,0,0,1.1979741,-432.47321,-11.945829)" /><path
   style="fill:#ffffff;stroke:none;stroke-width:7.19;stroke-linecap:round;stroke-linejoin:round;stroke-miterlimit:10;stroke-opacity:0.918397;paint-order:fill markers stroke"
   id="path127"
   d="m 397.54133,26.422978 -1.61069,-0.522586 -1.68372,-0.180377 -7.2e-4,-1.693349 -0.34875,-1.657048 1.61025,-0.523961 1.46818,-0.843736 0.99591,1.369524 1.25613,1.135591 -0.99474,1.370373 z"
   transform="matrix(1.3172667,0,0,1.3172667,-487.42391,-14.781399)" /><path
   style="fill:#ffffff;stroke:none;stroke-width:7.19;stroke-linecap:round;stroke-linejoin:round;stroke-miterlimit:10;stroke-opacity:0.918397;paint-order:fill markers stroke"
   id="path128"
   d="m 395.69065,61.914002 -0.70366,-0.351908 -0.70104,-0.357094 0.11724,-0.777964 0.12298,-0.777077 0.77612,-0.128901 0.77705,-0.123165 0.36243,0.698298 0.35725,0.700957 -0.55212,0.560473 z"
   transform="matrix(1.1566583,0,0,1.1566583,-421.65648,-16.759516)" /><path
   style="fill:#ffffff;stroke:none;stroke-width:7.19;stroke-linecap:round;stroke-linejoin:round;stroke-miterlimit:10;stroke-opacity:0.918397;paint-order:fill markers stroke"
   id="path129"
   d="m 406.22559,45.723345 -1.06373,0.0419 -1.05378,0.151088 -0.36855,-0.998721 -0.46933,-0.955514 0.83595,-0.659139 0.76372,-0.741628 0.8852,0.59135 0.94133,0.497163 -0.28887,1.024613 z"
   transform="matrix(1.0746872,0,0,1.0746872,-389.95573,-10.595516)" /><path
   style="fill:#ffffff;stroke:none;stroke-width:7.19;stroke-linecap:round;stroke-linejoin:round;stroke-miterlimit:10;stroke-opacity:0.918397;paint-order:fill markers stroke"
   id="path130"
   d="m 418.32681,71.370732 0.38134,-1.539897 0.11411,-1.582302 1.58237,-0.113177 1.54012,-0.380434 0.59662,1.469949 0.83774,1.347181 -1.21364,1.021655 -1.02237,1.213038 -1.34669,-0.838531 z"
   transform="matrix(1.1800681,0,0,1.1800681,-437.81065,-18.481002)" /><path
   style="fill:#ffffff;stroke:none;stroke-width:7.19;stroke-linecap:round;stroke-linejoin:round;stroke-miterlimit:10;stroke-opacity:0.918397;paint-order:fill markers stroke"
   id="path131"
   d="m 435.16237,64.44974 -0.97561,-0.157661 -0.96986,-0.189784 -0.15153,-0.976573 -0.11921,-0.981044 0.88195,-0.445893 0.89619,-0.416534 0.6966,0.700995 0.67309,0.723611 -0.45142,0.879133 z"
   transform="matrix(0.99948115,-0.7694355,0.7694355,0.99948115,-408.6328,328.13632)" /><path
   style="fill:#ffffff;stroke:none;stroke-width:7.19;stroke-linecap:round;stroke-linejoin:round;stroke-miterlimit:10;stroke-opacity:0.918397;paint-order:fill markers stroke"
   id="path132"
   d="m 440.05957,80.745622 -1.41684,0.138208 -1.40508,0.228683 -0.56927,-1.30479 -0.65169,-1.265643 1.06501,-0.944613 1.00232,-1.010893 1.22749,0.720987 1.27115,0.640877 -0.30639,1.390207 z"
   transform="matrix(0.77561515,0,0,0.77561515,-263.69926,10.984707)" /><path
   style="fill:#ffffff;stroke:none;stroke-width:7.19;stroke-linecap:round;stroke-linejoin:round;stroke-miterlimit:10;stroke-opacity:0.918397;paint-order:fill markers stroke"
   id="path133"
   d="m 421.6485,94.939814 -0.83229,-0.409459 -0.88447,-0.279447 0.13223,-0.918088 -0.008,-0.927531 0.91402,-0.157952 0.8798,-0.293799 0.43267,0.82047 0.55129,0.745954 -0.64661,0.665029 z"
   transform="matrix(1.7590226,0,0,1.7590226,-680.18048,-76.008827)" /><path
   style="fill:#ffffff;stroke:none;stroke-width:7.19;stroke-linecap:round;stroke-linejoin:round;stroke-miterlimit:10;stroke-opacity:0.918397;paint-order:fill markers stroke"
   id="path134"
   d="m 406.34315,99.274375 -0.76498,-0.09675 -0.75556,-0.153892 -0.14438,-0.757437 -0.0871,-0.766137 0.67575,-0.371374 0.70172,-0.319607 0.56201,0.527916 0.52081,0.56861 -0.3284,0.697643 z"
   transform="matrix(1.1451493,0,0,1.1451493,-420.41205,-20.420694)" /><path
   style="font-weight:bold;font-size:49.8801px;line-height:0;font-family:'Linguistics Pro';-inkscape-font-specification:'Linguistics Pro, Bold';text-align:center;letter-spacing:0px;word-spacing:0px;text-anchor:middle;fill:#ffffff;stroke-width:15.2979;stroke-linecap:round;stroke-linejoin:round;stroke-miterlimit:10;stroke-opacity:0.918397;paint-order:fill markers stroke"
   d="m 7.31241,81.983894 c 2.74791,8.132941 8.68879,10.710291 15.51465,8.404008 4.01806,-1.357599 8.06224,-4.234252 7.92202,-10.875039 L 28.79302,79.31078 c -0.5337,3.84802 -2.04551,5.599376 -4.70807,6.498988 -3.14668,1.063181 -6.91622,-0.03641 -9.46785,-7.588422 -2.19179,-6.486993 -1.04247,-9.949711 0.99076,-10.636689 1.69437,-0.572482 3.0244,0.650173 4.82877,3.276736 0.71507,0.998939 1.63751,1.334514 2.89617,0.909242 1.69437,-0.572483 3.72364,-2.228984 3.00395,-4.359044 -1.16132,-3.437128 -6.64026,-3.689476 -11.0456,-2.201025 -3.77601,1.275816 -6.4176,3.354952 -7.86002,6.26947 -1.34626,2.720209 -1.54175,6.292157 -0.11872,10.503858 z"
   id="path135"
   aria-label="c" /></svg>
