<?xml version="1.0" encoding="UTF-8" standalone="no"?>
<!-- Generator: Adobe Illustrator 13.0.2, SVG Export Plug-In . SVG Version: 6.00 Build 14948)  -->

<svg
   id="Layer_1"
   xml:space="preserve"
   viewBox="0 0 17.462571 81.938308"
   version="1.1"
   y="0px"
   x="0px"
   width="17.46257"
   height="81.938309"
   sodipodi:docname="collabst-text-vertical.svg"
   xmlns:inkscape="http://www.inkscape.org/namespaces/inkscape"
   xmlns:sodipodi="http://sodipodi.sourceforge.net/DTD/sodipodi-0.dtd"
   xmlns="http://www.w3.org/2000/svg"
   xmlns:svg="http://www.w3.org/2000/svg"
   xmlns:rdf="http://www.w3.org/1999/02/22-rdf-syntax-ns#"
   xmlns:cc="http://creativecommons.org/ns#"
   xmlns:dc="http://purl.org/dc/elements/1.1/"><sodipodi:namedview
   id="namedview1"
   pagecolor="#ffffff"
   bordercolor="#999999"
   borderopacity="1"
   inkscape:showpageshadow="2"
   inkscape:pageopacity="0"
   inkscape:pagecheckerboard="0"
   inkscape:deskcolor="#d1d1d1"><inkscape:page
     x="0"
     y="0"
     width="17.46257"
     height="81.938309"
     id="page2"
     margin="0"
     bleed="0" /></sodipodi:namedview><defs
   id="defs1" />


<metadata
   id="metadata1"><rdf:RDF><cc:Work><dc:format>image/svg+xml</dc:format><dc:type
         rdf:resource="http://purl.org/dc/dcmitype/StillImage" /><cc:license
         rdf:resource="http://creativecommons.org/publicdomain/zero/1.0/" /><dc:publisher><cc:Agent
           rdf:about="http://openclipart.org/"><dc:title>Openclipart</dc:title></cc:Agent></dc:publisher><dc:title>Signs Hazard Warning</dc:title><dc:date>2006-09-11T08:59:16</dc:date><dc:description /><dc:source>https://openclipart.org/detail/14422/signs-hazard-warning-by-h0us3s-14422</dc:source><dc:creator><cc:Agent><dc:title>h0us3s</dc:title></cc:Agent></dc:creator><dc:subject><rdf:Bag><rdf:li>hazard</rdf:li><rdf:li>sign</rdf:li><rdf:li>warning</rdf:li></rdf:Bag></dc:subject></cc:Work><cc:License
       rdf:about="http://creativecommons.org/publicdomain/zero/1.0/"><cc:permits
         rdf:resource="http://creativecommons.org/ns#Reproduction" /><cc:permits
         rdf:resource="http://creativecommons.org/ns#Distribution" /><cc:permits
         rdf:resource="http://creativecommons.org/ns#DerivativeWorks" /></cc:License></rdf:RDF></metadata><path
   style="font-weight:bold;font-size:23.1599px;line-height:0;font-family:'Linguistics Pro';-inkscape-font-specification:'Linguistics Pro, Bold';text-align:center;letter-spacing:-0.307891px;word-spacing:0px;text-anchor:middle;fill:#000000;fill-opacity:1;stroke-width:6.93354;stroke-linecap:round;stroke-linejoin:round;stroke-miterlimit:10;stroke-opacity:0.918397;paint-order:fill markers stroke"
   d="m 11.60307,81.93831 c 3.89086,0 5.85946,-2.17703 5.85946,-5.44258 0,-1.92227 -0.64848,-4.07614 -3.52031,-4.97937 l -0.37056,0.81059 c 1.57488,0.78744 2.10755,1.69067 2.10755,2.96447 0,1.50539 -1.01903,2.96447 -4.63198,2.96447 -3.10342,0 -4.42354,-0.99588 -4.42354,-1.9686 0,-0.81059 0.71796,-1.20431 2.10755,-1.59803 0.53268,-0.16212 0.8106,-0.50952 0.8106,-1.11167 0,-0.8106 -0.41688,-1.92228 -1.43591,-1.92228 -1.64436,0 -2.54759,2.31599 -2.54759,4.42355 0,1.80647 0.50951,3.24238 1.55171,4.28458 0.97272,0.97271 2.47811,1.57487 4.49302,1.57487 z M 11.51047,67.1228 c -3.10343,0 -4.88674,-0.67164 -4.88674,-2.31599 0,-1.64435 1.78331,-2.31599 4.88674,-2.31599 3.10343,0 4.88674,0.67164 4.88674,2.31599 0,1.64435 -1.78331,2.31599 -4.88674,2.31599 z m 0,3.68242 c 3.705581,0 5.9521,-1.78331 5.9521,-5.99841 0,-4.2151 -2.24652,-5.99842 -5.9521,-5.99842 -3.70558,0 -5.95209,1.78332 -5.95209,5.99842 0,4.2151 2.24651,5.99841 5.95209,5.99841 z m 5.67418,-12.89323 v -6.50793 h -0.88008 c -0.0695,1.32011 -0.16212,1.50539 -1.13483,1.50539 H 0.13895999 L 0,53.07157 0.62531999,57.77303 H 1.45907 l 0.13896,-0.8106 C 1.66753,56.59188 1.87595,56.4066 2.80235,56.4066 h 12.36739 c 0.97271,0 1.06535,0.18528 1.13483,1.50539 z m 0,-6.84852 v -6.50793 h -0.88008 c -0.0695,1.32011 -0.16212,1.50539 -1.13483,1.50539 H 0.13895999 L 0,46.22305 0.62531999,50.92451 H 1.45907 l 0.13896,-0.81059 c 0.0695,-0.37056 0.27792,-0.55584 1.20432,-0.55584 h 12.36739 c 0.97271,0 1.06535,0.18528 1.13483,1.50539 z M 13.71066,40.13881 c -1.08851,0 -1.621189,-0.37056 -2.01491,-1.06535 -0.39372,-0.71796 -0.717959,-1.52856 -0.972719,-2.08439 h 3.35819 c 1.25063,0.0463 1.57487,0.81059 1.57487,1.43591 0,0.90324 -0.71795,1.71383 -1.945431,1.71383 z m 0.393721,3.56663 c 1.73699,0 3.35819,-1.158 3.35819,-3.49715 0,-1.48223 -0.8106,-2.50127 -1.343281,-3.31186 0.71796,-0.30108 1.343281,-0.6948 1.343281,-1.80648 0,-1.20431 -0.39372,-2.66339 -0.6948,-3.42766 l -0.76428,0.0695 c 0.0232,0.30108 0,0.76427 -0.1158,1.11167 -0.0926,0.30108 -0.37056,0.74112 -1.73699,0.74112 h -5.34994 c -1.43591,0 -3.24238,0.2316 -3.24238,4.3309 0,3.40451 1.34327,5.4889 2.84866,5.4889 1.0422,0 1.45908,-1.48224 1.45908,-2.08439 0,-0.50952 -0.37056,-0.76428 -0.9264,-0.94956 -1.96859,-0.64848 -2.31599,-1.38959 -2.31599,-2.03807 0,-0.67164 0.39372,-1.34327 1.71383,-1.34327 h 1.22748 c 0.55584,0.81059 1.13483,2.75602 1.64435,4.26142 0.62532,1.82963 1.57488,2.45495 2.89499,2.45495 z M 13.618021,27.1529 h -3.65926 c -0.48636,0 -0.97272,-0.0232 -1.296961,-0.13896 -0.787429,-0.30107 -1.32011,-0.83375 -1.32011,-1.87595 0,-1.13483 0.579,-2.31599 4.35406,-2.31599 2.91815,0 4.70146,0.60216 4.70146,2.33915 0,1.13484 -0.625319,1.73699 -1.482229,1.89911 -0.3474,0.0695 -0.85692,0.0926 -1.29696,0.0926 z m -12.15895,4.86358 0.13896,-0.81059 c 0.0695,-0.37056 0.27792,-0.55584 1.20432,-0.55584 h 14.24334 l 0.41688,-0.74112 -0.78744,-1.25063 c 0.44004,-0.83376 0.78744,-1.94543 0.78744,-3.45083 0,-3.31186 -1.11168,-6.06789 -6.34582,-6.06789 -3.775061,0 -5.55837,2.01491 -5.55837,4.3309 0,1.45907 0.76427,2.59391 1.59803,3.68242 H 0.13896099 L 9.9999993e-7,27.31502 0.62532099,32.01648 Z m 11.44099,-14.23651 3.45083,-0.27792 c 0.8106,-0.88008 1.11168,-2.61707 1.11168,-3.91403 0,-2.8255 -1.273801,-4.77093 -3.77507,-4.77093 -1.991751,0 -2.941311,1.25063 -3.7519,3.38134 -0.48636,1.34327 -1.0422,2.33915 -1.96859,2.33915 -0.71796,0 -1.34328,-0.50952 -1.34328,-1.45907 0,-1.18116 1.06536,-2.17703 2.82551,-2.61707 V 9.60452 h -3.08027 c -0.57899,0.94956 -0.810591,2.26967 -0.810591,3.47399 0,2.8255 1.32011,4.58566 3.65926,4.58566 1.69067,0 2.802351,-1.36644 3.566631,-3.40451 0.41687,-1.18115 1.08851,-2.31599 2.20019,-2.31599 0.88007,0 1.412749,0.579 1.412749,1.59803 0,1.52856 -1.59803,2.75603 -3.49715,3.35819 z M 6.994291,7.89753 V 6.55425 h 7.48065 c 2.10755,0 2.98763,-1.57487 2.98763,-2.87183 0,-0.94955 -0.44004,-2.38547 -1.25064,-3.68242 l -0.71796,0.25475999 c 0.13896,0.32424 0.2316,0.81059001 0.2316,1.32011001 0,0.88008 -0.64847,1.48224 -2.13071,1.48224 H 6.994291 V 0.64847999 H 5.836301 V 3.05711 h -2.91815 v 1.34327 l 2.91815,2.03807 v 1.45908 z"
   id="path137"
   aria-label="collabst" /></svg>
