<?xml version="1.0" encoding="UTF-8" standalone="no"?>
<!-- Generator: Adobe Illustrator 13.0.2, SVG Export Plug-In . SVG Version: 6.00 Build 14948)  -->

<svg
   id="Layer_1"
   xml:space="preserve"
   viewBox="0 0 81.938311 17.462571"
   version="1.1"
   y="0px"
   x="0px"
   width="81.938309"
   height="17.46257"
   xmlns="http://www.w3.org/2000/svg"
   xmlns:svg="http://www.w3.org/2000/svg"
   xmlns:rdf="http://www.w3.org/1999/02/22-rdf-syntax-ns#"
   xmlns:cc="http://creativecommons.org/ns#"
   xmlns:dc="http://purl.org/dc/elements/1.1/"><defs
   id="defs1" />


<metadata
   id="metadata1"><rdf:RDF><cc:Work><dc:format>image/svg+xml</dc:format><dc:type
         rdf:resource="http://purl.org/dc/dcmitype/StillImage" /><cc:license
         rdf:resource="http://creativecommons.org/publicdomain/zero/1.0/" /><dc:publisher><cc:Agent
           rdf:about="http://openclipart.org/"><dc:title>Openclipart</dc:title></cc:Agent></dc:publisher><dc:title>Signs Hazard Warning</dc:title><dc:date>2006-09-11T08:59:16</dc:date><dc:description /><dc:source>https://openclipart.org/detail/14422/signs-hazard-warning-by-h0us3s-14422</dc:source><dc:creator><cc:Agent><dc:title>h0us3s</dc:title></cc:Agent></dc:creator><dc:subject><rdf:Bag><rdf:li>hazard</rdf:li><rdf:li>sign</rdf:li><rdf:li>warning</rdf:li></rdf:Bag></dc:subject></cc:Work><cc:License
       rdf:about="http://creativecommons.org/publicdomain/zero/1.0/"><cc:permits
         rdf:resource="http://creativecommons.org/ns#Reproduction" /><cc:permits
         rdf:resource="http://creativecommons.org/ns#Distribution" /><cc:permits
         rdf:resource="http://creativecommons.org/ns#DerivativeWorks" /></cc:License></rdf:RDF></metadata><path
   style="font-weight:bold;font-size:23.1599px;line-height:0;font-family:'Linguistics Pro';-inkscape-font-specification:'Linguistics Pro, Bold';text-align:center;letter-spacing:-0.307891px;word-spacing:0px;text-anchor:middle;fill:#ffffff;stroke-width:6.93354;stroke-linecap:round;stroke-linejoin:round;stroke-miterlimit:10;stroke-opacity:0.918397;paint-order:fill markers stroke"
   d="m 0,11.60307 c 0,3.89086 2.1770307,5.85946 5.4425767,5.85946 1.9222717,0 4.0761424,-0.64848 4.9793783,-3.52031 L 9.6113591,13.57166 c -0.7874369,1.57488 -1.690673,2.10755 -2.9644676,2.10755 -1.5053935,0 -2.9644673,-1.01903 -2.9644673,-4.63198 0,-3.10342 0.9958758,-4.42354 1.9685916,-4.42354 0.8105965,0 1.2043148,0.71796 1.5980331,2.10755 0.1621193,0.53268 0.5095179,0.8106 1.1116753,0.8106 0.8105969,0 1.9222718,-0.41688 1.9222718,-1.43591 0,-1.64436 -2.3159901,-2.54759 -4.4235411,-2.54759 -1.8064722,0 -3.2423861,0.50951 -4.2845816,1.55171 C 0.6021575,8.08277 0,9.58816 0,11.60307 Z m 14.815512,-0.0926 c 0,-3.10343 0.671637,-4.88674 2.31599,-4.88674 1.644353,0 2.31599,1.78331 2.31599,4.88674 0,3.10343 -0.671637,4.88674 -2.31599,4.88674 -1.644353,0 -2.31599,-1.78331 -2.31599,-4.88674 z m -3.682424,0 c 0,3.70558 1.783312,5.9521 5.998414,5.9521 4.215102,0 5.998415,-2.24652 5.998415,-5.9521 0,-3.70558 -1.783313,-5.95209 -5.998415,-5.95209 -4.215102,0 -5.998414,2.24651 -5.998414,5.95209 z m 12.893232,5.67418 h 6.507932 v -0.88008 c -1.320115,-0.0695 -1.505394,-0.16212 -1.505394,-1.13483 V 0.13896 L 28.866739,0 24.165279,0.62532 v 0.83375 l 0.810597,0.13896 c 0.370558,0.0695 0.555837,0.27792 0.555837,1.20432 v 12.36739 c 0,0.97271 -0.185279,1.06535 -1.505393,1.13483 z m 6.848518,0 h 6.507932 v -0.88008 c -1.320114,-0.0695 -1.505393,-0.16212 -1.505393,-1.13483 V 0.13896 L 35.715257,0 31.013797,0.62532 v 0.83375 l 0.810597,0.13896 c 0.370558,0.0695 0.555838,0.27792 0.555838,1.20432 v 12.36739 c 0,0.97271 -0.18528,1.06535 -1.505394,1.13483 z m 10.924661,-3.47399 c 0,-1.08851 0.370558,-1.62119 1.065355,-2.01491 0.717957,-0.39372 1.528554,-0.71796 2.084391,-0.97272 v 3.35819 c -0.04632,1.25063 -0.810596,1.57487 -1.435913,1.57487 -0.903237,0 -1.713833,-0.71795 -1.713833,-1.94543 z m -3.566625,0.39372 c 0,1.73699 1.157995,3.35819 3.497145,3.35819 1.482234,0 2.50127,-0.8106 3.311866,-1.34328 0.301079,0.71796 0.694797,1.34328 1.806472,1.34328 1.204315,0 2.663389,-0.39372 3.427666,-0.6948 l -0.06948,-0.76428 c -0.301079,0.0232 -0.764277,0 -1.111675,-0.1158 -0.301079,-0.0926 -0.741117,-0.37056 -0.741117,-1.73699 V 8.80076 c 0,-1.43591 -0.231599,-3.24238 -4.330902,-3.24238 -3.404505,0 -5.488896,1.34327 -5.488896,2.84866 0,1.0422 1.482234,1.45908 2.084391,1.45908 0.509518,0 0.764277,-0.37056 0.949556,-0.9264 0.648477,-1.96859 1.389594,-2.31599 2.038071,-2.31599 0.671637,0 1.343274,0.39372 1.343274,1.71383 v 1.22748 c -0.810596,0.55584 -2.756028,1.13483 -4.261421,1.64435 -1.829632,0.62532 -2.45495,1.57488 -2.45495,2.89499 z M 54.785407,13.61802 V 9.95876 c 0,-0.48636 0.02316,-0.97272 0.138959,-1.29696 0.301079,-0.78743 0.833757,-1.32011 1.875952,-1.32011 1.134835,0 2.31599,0.579 2.31599,4.35406 0,2.91815 -0.602157,4.70146 -2.33915,4.70146 -1.134835,0 -1.736992,-0.62532 -1.899111,-1.48223 -0.06948,-0.3474 -0.09264,-0.85692 -0.09264,-1.29696 z M 49.921828,1.45907 50.732424,1.59803 c 0.370559,0.0695 0.555838,0.27792 0.555838,1.20432 v 14.24334 l 0.741117,0.41688 1.250634,-0.78744 c 0.833757,0.44004 1.945432,0.78744 3.450826,0.78744 3.311865,0 6.067894,-1.11168 6.067894,-6.34582 0,-3.77506 -2.014912,-5.55837 -4.330902,-5.55837 -1.459074,0 -2.593909,0.76427 -3.682424,1.59803 V 0.13896 L 54.623288,0 49.921828,0.62532 Z m 14.236516,11.44099 0.277919,3.45083 c 0.880076,0.8106 2.617068,1.11168 3.914023,1.11168 2.825508,0 4.770939,-1.2738 4.770939,-3.77507 0,-1.99175 -1.250634,-2.94131 -3.381345,-3.7519 -1.343274,-0.48636 -2.33915,-1.0422 -2.33915,-1.96859 0,-0.71796 0.509518,-1.34328 1.459074,-1.34328 1.181155,0 2.17703,1.06536 2.617068,2.82551 h 0.856917 V 6.36897 c -0.949556,-0.57899 -2.26967,-0.81059 -3.473985,-0.81059 -2.825508,0 -4.585661,1.32011 -4.585661,3.65926 0,1.69067 1.366435,2.80235 3.404506,3.56663 1.181155,0.41687 2.31599,1.08851 2.31599,2.20019 0,0.88007 -0.578998,1.41275 -1.598033,1.41275 -1.528554,0 -2.756028,-1.59803 -3.358186,-3.49715 z m 9.882441,-5.90577 h 1.343274 v 7.48065 c 0,2.10755 1.574873,2.98763 2.871828,2.98763 0.949556,0 2.38547,-0.44004 3.682424,-1.25064 l -0.254759,-0.71796 c -0.324238,0.13896 -0.810596,0.2316 -1.320114,0.2316 -0.880076,0 -1.482234,-0.64847 -1.482234,-2.13071 V 6.99429 h 2.40863 V 5.8363 h -2.40863 V 2.91815 H 77.53793 L 75.499859,5.8363 h -1.459074 z"
   id="text135"
   aria-label="collabst" /></svg>
